<!-- Generated by IcoMoon.io -->
<svg version="1.1" xmlns="http://www.w3.org/2000/svg" width="51" height="32" viewBox="0 0 51 32">
<title>arrow-up</title>
<path d="M0.937 24.937c-1.25 1.25-1.25 3.276 0 4.526s3.276 1.25 4.526 0l-4.526-4.526zM25.6 4.8l2.263-2.263-2.263-2.263-2.263 2.263 2.263 2.263zM45.737 29.463c1.25 1.25 3.276 1.25 4.525 0s1.25-3.276 0-4.526l-4.525 4.526zM5.463 29.463l22.4-22.4-4.526-4.526-22.4 22.4 4.526 4.526zM23.337 7.063l22.4 22.4 4.525-4.526-22.4-22.4-4.526 4.526z"></path>
</svg>
