<!-- Generated by IcoMoon.io -->
<svg version="1.1" xmlns="http://www.w3.org/2000/svg" width="32" height="32" viewBox="0 0 32 32">
<title>book-send</title>
<path d="M28.213 2.84l-14.44 14.493c-0.166-0.096-0.34-0.176-0.52-0.24l-9.533-3.227c-0.288-0.072-0.544-0.239-0.727-0.473s-0.282-0.523-0.282-0.82c0-0.297 0.099-0.586 0.282-0.82s0.439-0.401 0.727-0.473l23.653-8.413c0.154-0.053 0.317-0.080 0.48-0.080 0.122-0.002 0.244 0.016 0.36 0.053z"></path>
<path d="M29.134 4.627l-8.413 23.68c-0.093 0.276-0.273 0.514-0.514 0.678s-0.529 0.244-0.819 0.229c-0.294 0.014-0.584-0.071-0.826-0.24s-0.42-0.413-0.508-0.694l-3.173-9.533c-0.064-0.18-0.144-0.354-0.24-0.52l14.52-14.44c0.082 0.276 0.073 0.57-0.026 0.84z"></path>
</svg>
