<!-- Generated by IcoMoon.io -->
<svg version="1.1" xmlns="http://www.w3.org/2000/svg" width="32" height="32" viewBox="0 0 32 32">
<title>book-building</title>
<path d="M0.533 30.933h3.2v-17.6c0-0.295 0.239-0.533 0.533-0.533h7.467v-12.267c0-0.295 0.239-0.533 0.533-0.533h13.867c0.294 0 0.533 0.239 0.533 0.533v30.4h4.8c0.295 0 0.533 0.239 0.533 0.533s-0.239 0.533-0.533 0.533h-30.933c-0.295 0-0.533-0.239-0.533-0.533s0.239-0.533 0.533-0.533zM20.8 30.933h2.133v-4.8c0-0.295-0.239-0.533-0.533-0.533h-1.067c-0.295 0-0.533 0.239-0.533 0.533v4.8zM18.667 13.333v17.6h1.067v-4.8c0-0.884 0.716-1.6 1.6-1.6h1.067c0.884 0 1.6 0.716 1.6 1.6v4.8h1.6v-29.867h-12.8v11.733h5.333c0.295 0 0.533 0.239 0.533 0.533zM4.8 30.933h12.8v-17.067h-12.8v17.067z"></path>
<path d="M14.933 7.467h3.2c0.295 0 0.533 0.239 0.533 0.533v3.2c0 0.295-0.239 0.533-0.533 0.533h-3.2c-0.295 0-0.533-0.239-0.533-0.533v-3.2c0-0.295 0.239-0.533 0.533-0.533zM15.466 10.667h2.133v-2.133h-2.133v2.133z"></path>
<path d="M14.933 2.133h3.2c0.295 0 0.533 0.239 0.533 0.533v3.2c0 0.295-0.239 0.533-0.533 0.533h-3.2c-0.295 0-0.533-0.239-0.533-0.533v-3.2c0-0.295 0.239-0.533 0.533-0.533zM15.466 5.333h2.133v-2.133h-2.133v2.133z"></path>
<path d="M20.267 7.467h3.2c0.295 0 0.533 0.239 0.533 0.533v3.2c0 0.295-0.239 0.533-0.533 0.533h-3.2c-0.294 0-0.533-0.239-0.533-0.533v-3.2c0-0.295 0.239-0.533 0.533-0.533zM20.8 10.667h2.133v-2.133h-2.133v2.133z"></path>
<path d="M20.267 2.133h3.2c0.295 0 0.533 0.239 0.533 0.533v3.2c0 0.295-0.239 0.533-0.533 0.533h-3.2c-0.294 0-0.533-0.239-0.533-0.533v-3.2c0-0.295 0.239-0.533 0.533-0.533zM20.8 5.333h2.133v-2.133h-2.133v2.133z"></path>
<path d="M20.267 12.8h3.2c0.295 0 0.533 0.239 0.533 0.533v3.2c0 0.295-0.239 0.533-0.533 0.533h-3.2c-0.294 0-0.533-0.239-0.533-0.533v-3.2c0-0.295 0.239-0.533 0.533-0.533zM20.8 16h2.133v-2.133h-2.133v2.133z"></path>
<path d="M20.267 18.133h3.2c0.295 0 0.533 0.239 0.533 0.533v3.2c0 0.295-0.239 0.533-0.533 0.533h-3.2c-0.294 0-0.533-0.239-0.533-0.533v-3.2c0-0.295 0.239-0.533 0.533-0.533zM20.8 21.333h2.133v-2.133h-2.133v2.133z"></path>
<path d="M10.133 24.533h-3.2c-0.295 0-0.533-0.239-0.533-0.533v-3.2c0-0.295 0.239-0.533 0.533-0.533h3.2c0.295 0 0.533 0.239 0.533 0.533v3.2c0 0.294-0.239 0.533-0.533 0.533zM9.6 21.333h-2.133v2.133h2.133v-2.133z"></path>
<path d="M10.133 19.2h-3.2c-0.295 0-0.533-0.239-0.533-0.533v-3.2c0-0.295 0.239-0.533 0.533-0.533h3.2c0.295 0 0.533 0.239 0.533 0.533v3.2c0 0.295-0.239 0.533-0.533 0.533zM9.6 16h-2.133v2.133h2.133v-2.133z"></path>
<path d="M10.133 29.867h-3.2c-0.295 0-0.533-0.239-0.533-0.533v-3.2c0-0.295 0.239-0.533 0.533-0.533h3.2c0.295 0 0.533 0.239 0.533 0.533v3.2c0 0.295-0.239 0.533-0.533 0.533zM9.6 26.667h-2.133v2.133h2.133v-2.133z"></path>
<path d="M15.467 24.533h-3.2c-0.295 0-0.533-0.239-0.533-0.533v-3.2c0-0.295 0.239-0.533 0.533-0.533h3.2c0.295 0 0.533 0.239 0.533 0.533v3.2c0 0.294-0.239 0.533-0.533 0.533zM14.933 21.333h-2.133v2.133h2.133v-2.133z"></path>
<path d="M15.467 19.2h-3.2c-0.295 0-0.533-0.239-0.533-0.533v-3.2c0-0.295 0.239-0.533 0.533-0.533h3.2c0.295 0 0.533 0.239 0.533 0.533v3.2c0 0.295-0.239 0.533-0.533 0.533zM14.933 16h-2.133v2.133h2.133v-2.133z"></path>
<path d="M15.467 29.867h-3.2c-0.295 0-0.533-0.239-0.533-0.533v-3.2c0-0.295 0.239-0.533 0.533-0.533h3.2c0.295 0 0.533 0.239 0.533 0.533v3.2c0 0.295-0.239 0.533-0.533 0.533zM14.933 26.667h-2.133v2.133h2.133v-2.133z"></path>
</svg>
