<!-- Generated by IcoMoon.io -->
<svg version="1.1" xmlns="http://www.w3.org/2000/svg" width="38" height="32" viewBox="0 0 38 32">
<title>book3</title>
<path d="M7.2 17.8c-0.475 0-0.939 0.141-1.333 0.404s-0.702 0.639-0.884 1.077c-0.182 0.439-0.229 0.921-0.137 1.387s0.321 0.893 0.657 1.229c0.336 0.336 0.763 0.564 1.229 0.657s0.948 0.045 1.387-0.137c0.439-0.182 0.813-0.489 1.077-0.884s0.404-0.859 0.404-1.333c0-0.636-0.253-1.247-0.703-1.697s-1.061-0.703-1.697-0.703zM7.2 21.4c-0.237 0-0.469-0.070-0.667-0.202s-0.351-0.319-0.442-0.539c-0.091-0.219-0.115-0.46-0.068-0.693s0.161-0.447 0.328-0.614c0.168-0.168 0.382-0.282 0.614-0.328s0.474-0.023 0.693 0.068 0.407 0.245 0.539 0.442c0.132 0.197 0.202 0.429 0.202 0.667 0 0.318-0.126 0.624-0.351 0.848s-0.53 0.352-0.849 0.352z"></path>
<path d="M31.2 17.8c-0.475 0-0.939 0.141-1.333 0.404s-0.702 0.639-0.884 1.077c-0.182 0.439-0.229 0.921-0.137 1.387s0.321 0.893 0.657 1.229c0.336 0.336 0.763 0.564 1.229 0.657s0.948 0.045 1.387-0.137c0.439-0.182 0.813-0.489 1.077-0.884s0.404-0.859 0.404-1.333c0-0.636-0.253-1.247-0.703-1.697s-1.061-0.703-1.697-0.703zM31.2 21.4c-0.237 0-0.469-0.070-0.667-0.202s-0.351-0.319-0.442-0.539c-0.091-0.219-0.115-0.46-0.068-0.693s0.161-0.447 0.328-0.614c0.168-0.168 0.382-0.282 0.614-0.328s0.474-0.023 0.693 0.068c0.219 0.091 0.407 0.245 0.539 0.442s0.202 0.429 0.202 0.667c0 0.318-0.126 0.624-0.352 0.848s-0.53 0.352-0.848 0.352z"></path>
<path d="M13.8 20.8h10.8v1.2h-10.8v-1.2z"></path>
<path d="M13.8 18.4h10.8v1.2h-10.8v-1.2z"></path>
<path d="M17.4 9.4h3.6v1.2h-3.6v-1.2z"></path>
<path d="M37.2 14.8v-1.2c-0.001-0.477-0.192-0.934-0.529-1.271s-0.794-0.527-1.271-0.529h-2.376l-1.242-4.356-0.372-1.482c-0.098-0.389-0.322-0.734-0.639-0.981s-0.706-0.381-1.107-0.381h-5.064v-2.4c-0.001-0.318-0.128-0.623-0.352-0.847s-0.53-0.352-0.848-0.353h-8.4c-0.318 0.001-0.623 0.128-0.847 0.353s-0.352 0.53-0.353 0.847v2.4h-5.064c-0.401-0-0.791 0.134-1.107 0.381s-0.541 0.592-0.639 0.981l-0.366 1.476-1.248 4.362h-2.376c-0.477 0.001-0.934 0.192-1.271 0.529s-0.527 0.794-0.529 1.271v1.2c0.001 0.304 0.079 0.603 0.227 0.868s0.361 0.489 0.619 0.65c-0.542 0.557-0.846 1.304-0.846 2.082v7.2c0.001 0.252 0.055 0.5 0.158 0.73s0.254 0.435 0.442 0.602v2.268c0.001 0.477 0.192 0.934 0.529 1.271s0.794 0.527 1.271 0.529h4.8c0.477-0.001 0.934-0.192 1.271-0.529s0.527-0.794 0.529-1.271v-1.8h18v1.8c0.001 0.477 0.192 0.934 0.529 1.271s0.794 0.527 1.271 0.529h4.8c0.477-0.001 0.934-0.192 1.271-0.529s0.527-0.794 0.529-1.271v-2.268c0.188-0.167 0.339-0.373 0.442-0.602s0.157-0.478 0.158-0.73v-7.2c0-0.778-0.304-1.525-0.846-2.082 0.258-0.161 0.471-0.384 0.619-0.65s0.226-0.564 0.227-0.868zM15 2.2h8.4v2.4h-8.4v-2.4zM8.154 6.256c0.032-0.13 0.107-0.246 0.212-0.328s0.236-0.128 0.37-0.128h20.928c0.134 0 0.264 0.045 0.37 0.128s0.18 0.198 0.212 0.328l0.186 0.744h-22.464l0.186-0.744zM7.65 8.2h23.1l2.052 7.2h-17.256c-0.141-0.838-0.575-1.6-1.224-2.149s-1.472-0.85-2.322-0.85c-0.85 0-1.673 0.301-2.322 0.85s-1.083 1.31-1.224 2.149h-2.856l2.052-7.2zM14.316 15.4h-4.632c0.131-0.515 0.43-0.971 0.849-1.297s0.936-0.503 1.467-0.503c0.531 0 1.047 0.177 1.467 0.503s0.718 0.783 0.849 1.297zM2.4 13.6c0-0.159 0.063-0.312 0.176-0.424s0.265-0.176 0.424-0.176h2.034l-0.684 2.4h-1.35c-0.159 0-0.312-0.063-0.424-0.176s-0.176-0.265-0.176-0.424v-1.2zM9 29.2c0 0.159-0.063 0.312-0.176 0.424s-0.265 0.176-0.424 0.176h-4.8c-0.159 0-0.312-0.063-0.424-0.176s-0.176-0.265-0.176-0.424v-1.8h6v1.8zM35.4 29.2c0 0.159-0.063 0.312-0.176 0.424s-0.265 0.176-0.424 0.176h-4.8c-0.159 0-0.312-0.063-0.424-0.176s-0.176-0.265-0.176-0.424v-1.8h6v1.8zM36 25.6c0 0.159-0.063 0.312-0.176 0.424s-0.265 0.176-0.424 0.176h-32.4c-0.159 0-0.312-0.063-0.424-0.176s-0.176-0.265-0.176-0.424v-0.6h33.6v0.6zM36 23.8h-33.6v-5.4c0.001-0.477 0.192-0.934 0.529-1.271s0.794-0.527 1.271-0.529h30c0.477 0.001 0.934 0.192 1.271 0.529s0.527 0.794 0.529 1.271v5.4zM36 14.8c0 0.159-0.063 0.312-0.176 0.424s-0.265 0.176-0.424 0.176h-1.35l-0.684-2.4h2.034c0.159 0 0.312 0.063 0.424 0.176s0.176 0.265 0.176 0.424v1.2z"></path>
</svg>
