<!-- Generated by IcoMoon.io -->
<svg version="1.1" xmlns="http://www.w3.org/2000/svg" width="43" height="32" viewBox="0 0 43 32">
<title>book2</title>
<path d="M37.011 31.873c-0.8 0.016-1.587-0.213-2.253-0.656-0.496-0.324-1.076-0.497-1.668-0.497s-1.172 0.172-1.668 0.497c-0.673 0.429-1.454 0.656-2.252 0.656s-1.579-0.228-2.252-0.656c-0.496-0.324-1.076-0.497-1.668-0.497s-1.172 0.173-1.668 0.497c-0.673 0.429-1.454 0.656-2.252 0.656s-1.579-0.228-2.252-0.656c-0.495-0.324-1.075-0.497-1.667-0.497s-1.172 0.173-1.667 0.497c-0.61 0.405-1.322 0.631-2.055 0.65l-0.040-1.153c0.541-0.013 1.066-0.184 1.511-0.492 0.673-0.428 1.454-0.656 2.252-0.656s1.579 0.228 2.252 0.656c0.496 0.324 1.076 0.497 1.668 0.497s1.172-0.173 1.668-0.497c0.673-0.429 1.455-0.657 2.253-0.657s1.58 0.228 2.253 0.657c0.496 0.324 1.076 0.497 1.668 0.497s1.172-0.173 1.668-0.497c0.673-0.428 1.455-0.656 2.252-0.656s1.579 0.228 2.252 0.656c0.497 0.325 1.078 0.498 1.672 0.498s1.175-0.173 1.672-0.498c0.666-0.442 1.45-0.671 2.249-0.655v1.153c-0.595-0.016-1.179 0.158-1.669 0.497-0.668 0.444-1.456 0.673-2.258 0.657z"></path>
<path d="M5.651 31.873c-0.8 0.017-1.586-0.212-2.252-0.656-0.489-0.339-1.074-0.513-1.669-0.497v-1.153c0.8-0.017 1.587 0.212 2.253 0.656 0.489 0.339 1.073 0.513 1.668 0.497 0.595 0.016 1.18-0.158 1.669-0.498 0.665-0.444 1.45-0.672 2.249-0.655 0.78-0.018 1.546 0.201 2.2 0.627l-0.582 0.995c-0.477-0.321-1.043-0.485-1.618-0.469-0.593-0.016-1.175 0.158-1.662 0.496-0.667 0.445-1.454 0.674-2.256 0.657z"></path>
<path d="M37.012 27.836c-0.801 0.016-1.587-0.213-2.254-0.656-0.496-0.324-1.076-0.497-1.669-0.497s-1.173 0.173-1.669 0.497c-0.673 0.428-1.454 0.656-2.252 0.656s-1.579-0.228-2.252-0.656c-0.496-0.324-1.075-0.497-1.667-0.497s-1.172 0.173-1.668 0.497c-0.673 0.429-1.454 0.656-2.252 0.656s-1.579-0.228-2.252-0.656c-0.496-0.324-1.075-0.497-1.667-0.497s-1.172 0.173-1.667 0.497c-0.666 0.444-1.452 0.673-2.252 0.656-0.8 0.017-1.586-0.212-2.252-0.656-0.489-0.339-1.073-0.513-1.667-0.497-0.594-0.016-1.178 0.158-1.667 0.497-0.665 0.443-1.45 0.672-2.249 0.656-0.8 0.017-1.587-0.212-2.253-0.656-0.49-0.34-1.075-0.514-1.671-0.497v-1.153c0.8-0.017 1.586 0.212 2.252 0.656 0.489 0.339 1.074 0.513 1.669 0.497 0.594 0.016 1.178-0.158 1.667-0.497 0.665-0.443 1.45-0.672 2.249-0.656 0.801-0.017 1.587 0.212 2.254 0.656 0.489 0.339 1.073 0.513 1.668 0.497 0.595 0.016 1.179-0.158 1.668-0.497 0.673-0.429 1.454-0.656 2.252-0.656s1.579 0.228 2.252 0.656c0.496 0.324 1.075 0.497 1.668 0.497s1.172-0.173 1.668-0.497c0.673-0.429 1.454-0.656 2.252-0.656s1.579 0.228 2.252 0.656c0.496 0.324 1.075 0.497 1.668 0.497s1.172-0.173 1.668-0.497c0.674-0.428 1.455-0.656 2.254-0.656s1.58 0.228 2.254 0.656c0.497 0.324 1.077 0.497 1.67 0.497s1.173-0.173 1.67-0.497c0.667-0.443 1.453-0.672 2.254-0.656v1.153c-0.596-0.017-1.182 0.157-1.672 0.497-0.666 0.443-1.452 0.672-2.253 0.656z"></path>
<path d="M37.011 23.801c-0.8 0.016-1.586-0.213-2.253-0.656-0.489-0.339-1.074-0.513-1.669-0.497-0.437-0.015-0.87 0.078-1.262 0.271l-0.509-1.038c0.55-0.27 1.158-0.403 1.771-0.388 0.801-0.016 1.588 0.213 2.255 0.658 0.497 0.325 1.078 0.498 1.672 0.498s1.175-0.173 1.672-0.498c0.665-0.442 1.45-0.671 2.249-0.656v1.153c-0.595-0.016-1.179 0.157-1.669 0.496-0.668 0.444-1.456 0.673-2.258 0.657z"></path>
<path d="M29.163 23.801c-0.799 0.017-1.584-0.212-2.249-0.656-0.496-0.324-1.076-0.497-1.668-0.497s-1.172 0.173-1.668 0.497c-0.673 0.429-1.454 0.656-2.252 0.656s-1.579-0.228-2.252-0.656c-0.496-0.324-1.076-0.497-1.668-0.497s-1.172 0.173-1.668 0.497c-0.666 0.443-1.451 0.672-2.251 0.656-0.8 0.017-1.586-0.212-2.252-0.656-0.489-0.339-1.074-0.513-1.669-0.497-0.593-0.016-1.175 0.158-1.662 0.496-0.666 0.445-1.453 0.674-2.253 0.657-0.8 0.017-1.586-0.212-2.252-0.656-0.489-0.339-1.074-0.513-1.669-0.497v-1.153c0.8-0.017 1.587 0.212 2.253 0.656 0.489 0.339 1.073 0.513 1.668 0.497 0.595 0.016 1.18-0.158 1.669-0.498 0.665-0.444 1.45-0.672 2.249-0.655 0.8-0.017 1.586 0.212 2.252 0.656 0.489 0.339 1.073 0.513 1.668 0.497 0.595 0.016 1.179-0.158 1.669-0.497 0.673-0.429 1.454-0.656 2.252-0.656s1.579 0.228 2.252 0.656c0.496 0.324 1.076 0.497 1.668 0.497s1.172-0.173 1.668-0.497c0.673-0.429 1.455-0.657 2.253-0.657s1.58 0.228 2.253 0.657c0.508 0.341 1.11 0.515 1.722 0.496 0.044 0.001 0.089-0.002 0.133-0.007l0.153 1.143c-0.116 0.014-0.232 0.020-0.349 0.018z"></path>
<path d="M37.012 19.764c-0.801 0.016-1.587-0.213-2.254-0.656-0.496-0.324-1.076-0.497-1.669-0.497s-1.173 0.173-1.669 0.497c-0.673 0.428-1.454 0.656-2.252 0.656s-1.579-0.228-2.252-0.656c-0.496-0.324-1.075-0.497-1.667-0.497s-1.172 0.173-1.668 0.497c-0.673 0.428-1.454 0.656-2.252 0.656s-1.579-0.228-2.252-0.656c-0.496-0.324-1.075-0.497-1.667-0.497s-1.172 0.173-1.667 0.497c-0.666 0.444-1.452 0.673-2.252 0.656-0.8 0.017-1.586-0.212-2.252-0.656-0.489-0.339-1.073-0.513-1.667-0.497-0.594-0.016-1.178 0.158-1.667 0.497-0.665 0.443-1.45 0.672-2.249 0.656-0.8 0.017-1.587-0.212-2.253-0.656-0.49-0.34-1.075-0.514-1.671-0.497v-1.153c0.8-0.017 1.586 0.212 2.252 0.656 0.489 0.339 1.074 0.513 1.669 0.497 0.594 0.016 1.178-0.158 1.667-0.497 0.665-0.443 1.45-0.672 2.249-0.656 0.801-0.017 1.587 0.212 2.254 0.656 0.489 0.339 1.073 0.513 1.668 0.497 0.595 0.016 1.179-0.158 1.668-0.497 0.673-0.429 1.454-0.656 2.252-0.656s1.579 0.228 2.252 0.656c0.496 0.324 1.075 0.497 1.668 0.497s1.172-0.173 1.668-0.497c0.673-0.429 1.454-0.656 2.252-0.656s1.579 0.228 2.252 0.656c0.496 0.324 1.075 0.497 1.668 0.497s1.172-0.173 1.668-0.497c0.674-0.428 1.455-0.656 2.254-0.656s1.58 0.228 2.254 0.656c0.497 0.324 1.077 0.497 1.67 0.497s1.173-0.173 1.67-0.497c0.667-0.444 1.453-0.672 2.254-0.656v1.153c-0.596-0.017-1.182 0.157-1.672 0.497-0.666 0.443-1.452 0.672-2.253 0.656z"></path>
<path d="M28.796 19.275l-1.088-0.382c0.28-0.805 0.395-1.658 0.337-2.509s-0.288-1.68-0.675-2.44l-3.96-7.756c-0.039-0.077-0.061-0.161-0.063-0.247s0.015-0.171 0.050-0.25c0.035-0.079 0.087-0.148 0.153-0.204s0.142-0.096 0.226-0.118l7.893-2.104c0.257-0.067 0.477-0.233 0.613-0.462s0.175-0.502 0.11-0.76-0.229-0.48-0.457-0.617c-0.228-0.137-0.5-0.179-0.759-0.117l-9.553 2.283c-0.204 0.048-0.395 0.143-0.556 0.277s-0.291 0.303-0.377 0.494c-0.086 0.191-0.127 0.4-0.119 0.61s0.064 0.415 0.163 0.599l2.837 5.27c0.072 0.134 0.088 0.291 0.045 0.437s-0.142 0.269-0.276 0.342l-3.661 2.018-0.556-1.010 3.161-1.742-2.563-4.767c-0.183-0.34-0.286-0.718-0.3-1.105s0.061-0.771 0.219-1.123c0.158-0.353 0.396-0.664 0.694-0.911s0.649-0.421 1.025-0.51l9.548-2.283c0.556-0.14 1.145-0.054 1.637 0.239s0.848 0.771 0.988 1.327 0.054 1.145-0.239 1.637c-0.294 0.492-0.771 0.848-1.327 0.988l-7.204 1.92 3.637 7.12c0.458 0.899 0.729 1.881 0.798 2.887s-0.067 2.016-0.399 2.969z"></path>
<path d="M17.106 13.749l-7.007 3.861 0.556 1.009 7.007-3.861-0.556-1.009z"></path>
<path d="M34.018 15.44c-0.855 0-1.691-0.254-2.402-0.729s-1.265-1.151-1.593-1.941c-0.327-0.79-0.413-1.66-0.246-2.498s0.579-1.609 1.183-2.214c0.605-0.605 1.375-1.017 2.214-1.183s1.708-0.081 2.498 0.246c0.79 0.327 1.466 0.882 1.941 1.593s0.729 1.547 0.729 2.402c-0.001 1.146-0.457 2.246-1.268 3.056s-1.91 1.267-3.056 1.268zM34.018 7.944c-0.627 0-1.24 0.186-1.762 0.534s-0.928 0.844-1.168 1.423-0.303 1.217-0.18 1.832c0.122 0.615 0.424 1.18 0.868 1.624s1.009 0.746 1.624 0.868 1.253 0.060 1.832-0.18c0.58-0.24 1.075-0.646 1.423-1.168s0.535-1.135 0.535-1.762c-0.001-0.841-0.336-1.647-0.93-2.241s-1.401-0.929-2.241-0.93z"></path>
</svg>
