<!-- Generated by IcoMoon.io -->
<svg version="1.1" xmlns="http://www.w3.org/2000/svg" width="32" height="32" viewBox="0 0 32 32">
<title>book-leaf</title>
<path d="M31.21 0.345c-0.843-0.247-21.467-2.3-28.71 7.485-3.208 4.335-3.256 10.278-0.161 17.661-0.785 1.63-1.473 3.346-2.033 5.158-0.17 0.55 0.138 1.134 0.688 1.304 0.102 0.032 0.206 0.047 0.309 0.047 0.445 0 0.857-0.287 0.995-0.734 5.521-17.848 23.461-26.482 28.962-28.664 0.536-0.212 1.251-1.876-0.050-2.257z"></path>
<path d="M5.65 27.725c2.986 1.253 5.972 1.895 8.748 1.895 2.496 0 4.823-0.513 6.828-1.554 4.036-2.094 6.503-6.099 7.133-11.583 0.642-5.59 1.44-9.091 2.107-11.232-5.932 2.736-18.652 9.829-24.816 22.475z"></path>
</svg>
