<!-- Generated by IcoMoon.io -->
<svg version="1.1" xmlns="http://www.w3.org/2000/svg" width="32" height="32" viewBox="0 0 32 32">
<title>book1</title>
<path d="M0.792 6.51c-0.431 0-0.784-0.353-0.792-0.784v-4.933c0-0.439 0.353-0.792 0.792-0.792h4.933c0.431 0 0.784 0.353 0.784 0.792v1.718h18.98v-1.718c0-0.431 0.353-0.784 0.784-0.792h4.933c0.431 0 0.784 0.353 0.792 0.792v4.933c0 0.431-0.353 0.784-0.792 0.784h-1.718v18.98h1.718c0.431 0 0.784 0.353 0.792 0.784v4.933c0 0.431-0.353 0.784-0.792 0.792h-4.933c-0.431 0-0.784-0.353-0.784-0.792v-1.718h-18.98v1.718c0 0.431-0.353 0.784-0.784 0.792h-4.933c-0.431 0-0.784-0.353-0.792-0.792v-4.933c0-0.431 0.353-0.784 0.792-0.784h1.718v-18.98h-1.718zM30.431 4.941v-3.373h-3.373v3.373h3.373zM27.059 30.431h3.373v-3.373h-3.373v3.373zM6.51 26.274v1.647h18.98v-1.647c0-0.431 0.353-0.784 0.784-0.784h1.647v-18.98h-1.647c-0.431 0-0.784-0.353-0.784-0.784v-1.647h-18.98v1.647c0 0.431-0.353 0.784-0.784 0.784h-1.647v18.98h1.647c0.431 0 0.784 0.353 0.784 0.784zM1.569 27.059v3.373h3.373v-3.373h-3.373zM4.941 4.941v-3.373h-3.373v3.373h3.373z"></path>
</svg>
