<!-- Generated by IcoMoon.io -->
<svg version="1.1" xmlns="http://www.w3.org/2000/svg" width="1024" height="1024" viewBox="0 0 1024 1024">
<title>facebook</title>
<g id="icomoon-ignore">
</g>
<path d="M512.077 249.491c-145.281 0-262.529 117.248-262.529 262.526 0 145.28 117.248 262.528 262.529 262.528s262.528-117.248 262.528-262.528c0-145.278-117.248-262.526-262.528-262.526zM512.077 682.641c-93.953 0-170.625-76.672-170.625-170.624 0-93.95 76.672-170.622 170.625-170.622s170.624 76.672 170.624 170.622c0 93.952-76.672 170.624-170.624 170.624zM785.357 177.555c-33.92 0-61.312 27.392-61.312 61.312s27.392 61.312 61.312 61.312c33.92 0 61.312-27.264 61.312-61.312 0.009-8.055-1.57-16.032-4.646-23.475-3.081-7.443-7.595-14.206-13.291-19.901s-12.459-10.211-19.9-13.289c-7.445-3.078-15.424-4.657-23.475-4.646zM1023.821 512.017c0-70.656 0.64-140.67-3.328-211.198-3.968-81.92-22.656-154.624-82.56-214.528-60.032-60.032-132.608-78.592-214.528-82.56-70.656-3.968-140.672-3.328-211.2-3.328-70.656 0-140.673-0.64-211.201 3.328-81.92 3.968-154.624 22.656-214.528 82.56-60.032 60.032-78.592 132.608-82.56 214.528-3.968 70.656-3.328 140.67-3.328 211.198s-0.64 140.672 3.328 211.2c3.968 81.92 22.656 154.624 82.56 214.528 60.032 60.032 132.608 78.592 214.528 82.56 70.656 3.968 140.673 3.328 211.201 3.328 70.656 0 140.672 0.64 211.2-3.328 81.92-3.968 154.624-22.656 214.528-82.56 60.032-60.032 78.592-132.608 82.56-214.528 4.096-70.528 3.328-140.544 3.328-211.2zM911.181 813.841c-9.344 23.296-20.608 40.704-38.656 58.624-18.048 18.048-35.328 29.312-58.624 38.656-67.328 26.752-227.2 20.736-301.824 20.736s-234.625 6.016-301.953-20.608c-23.296-9.344-40.704-20.608-58.624-38.656-18.048-18.048-29.312-35.328-38.656-58.624-26.624-67.456-20.608-227.328-20.608-301.952s-6.016-234.622 20.608-301.95c9.344-23.296 20.608-40.704 38.656-58.624s35.328-29.312 58.624-38.656c67.328-26.624 227.329-20.608 301.953-20.608s234.624-6.016 301.952 20.608c23.296 9.344 40.704 20.608 58.624 38.656 18.048 18.048 29.312 35.328 38.656 58.624 26.624 67.328 20.608 227.326 20.608 301.95s6.016 234.496-20.736 301.824z"></path>
</svg>
