<!-- Generated by IcoMoon.io -->
<svg version="1.1" xmlns="http://www.w3.org/2000/svg" width="1229" height="1024" viewBox="0 0 1229 1024">
<title>facebook</title>
<g id="icomoon-ignore">
</g>
<path d="M1228.82 126.233c-45.138 19.76-94.259 33.981-144.86 39.52 52.531-31.67 91.873-81.704 110.638-140.715-49.295 29.758-103.296 50.625-159.611 61.675-23.537-25.534-52.004-45.876-83.625-59.758-31.626-13.882-65.725-21.006-100.178-20.929-139.402 0-251.515 114.668-251.515 255.383 0 19.76 2.36 39.52 6.195 58.532-208.732-11.078-394.896-112.273-518.661-267.21-22.552 39.089-34.369 83.595-34.224 128.889 0 88.621 44.402 166.762 112.111 212.72-39.902-1.595-78.87-12.725-113.734-32.484v3.144c0 124.099 86.444 226.939 201.653 250.594-21.631 5.704-43.885 8.617-66.234 8.684-16.374 0-31.863-1.649-47.5-3.896 31.863 101.197 124.65 174.7 235.139 177.096-86.444 68.71-194.72 109.128-312.289 109.128-21.095 0-40.567-0.748-60.776-3.144 111.521 72.602 243.842 114.519 386.342 114.519 462.607 0 715.74-388.915 715.74-726.481 0-11.078 0-22.155-0.737-33.233 48.978-36.376 91.904-81.435 126.126-132.033z"></path>
</svg>
