<svg style="display: none;" aria-hidden="true" xmlns="http://www.w3.org/2000/svg" xmlns:xlink="http://www.w3.org/1999/xlink"><symbol viewBox="0 0 51 32" id="svg-arrow-down"><path d="M0.937 5.463c-1.25-1.25-1.25-3.276 0-4.526s3.276-1.25 4.526 0l-4.526 4.526zM25.6 25.6l2.263 2.263-2.263 2.263-2.263-2.263 2.263-2.263zM45.737 0.937c1.25-1.25 3.276-1.25 4.525 0s1.25 3.276 0 4.526l-4.525-4.526zM5.463 0.937l22.4 22.4-4.526 4.526-22.4-22.4 4.526-4.526zM23.337 23.337l22.4-22.4 4.525 4.526-22.4 22.4-4.526-4.526z"/></symbol><symbol viewBox="0 0 51 32" id="svg-arrow-up"><path d="M0.937 24.937c-1.25 1.25-1.25 3.276 0 4.526s3.276 1.25 4.526 0l-4.526-4.526zM25.6 4.8l2.263-2.263-2.263-2.263-2.263 2.263 2.263 2.263zM45.737 29.463c1.25 1.25 3.276 1.25 4.525 0s1.25-3.276 0-4.526l-4.525 4.526zM5.463 29.463l22.4-22.4-4.526-4.526-22.4 22.4 4.526 4.526zM23.337 7.063l22.4 22.4 4.525-4.526-22.4-22.4-4.526 4.526z"/></symbol><symbol viewBox="0 0 32 32" id="svg-book-building"><path d="M0.533 30.933h3.2v-17.6c0-0.295 0.239-0.533 0.533-0.533h7.467v-12.267c0-0.295 0.239-0.533 0.533-0.533h13.867c0.294 0 0.533 0.239 0.533 0.533v30.4h4.8c0.295 0 0.533 0.239 0.533 0.533s-0.239 0.533-0.533 0.533h-30.933c-0.295 0-0.533-0.239-0.533-0.533s0.239-0.533 0.533-0.533zM20.8 30.933h2.133v-4.8c0-0.295-0.239-0.533-0.533-0.533h-1.067c-0.295 0-0.533 0.239-0.533 0.533v4.8zM18.667 13.333v17.6h1.067v-4.8c0-0.884 0.716-1.6 1.6-1.6h1.067c0.884 0 1.6 0.716 1.6 1.6v4.8h1.6v-29.867h-12.8v11.733h5.333c0.295 0 0.533 0.239 0.533 0.533zM4.8 30.933h12.8v-17.067h-12.8v17.067z"/><path d="M14.933 7.467h3.2c.295 0 .533.239.533.533v3.2c0 .295-.239.533-.533.533h-3.2c-.295 0-.533-.239-.533-.533v-3.2c0-.295.239-.533.533-.533zM15.466 10.667h2.133v-2.133h-2.133v2.133zM14.933 2.133h3.2c.295 0 .533.239.533.533v3.2c0 .295-.239.533-.533.533h-3.2c-.295 0-.533-.239-.533-.533v-3.2c0-.295.239-.533.533-.533zM15.466 5.333h2.133v-2.133h-2.133v2.133zM20.267 7.467h3.2c.295 0 .533.239.533.533v3.2c0 .295-.239.533-.533.533h-3.2c-.294 0-.533-.239-.533-.533v-3.2c0-.295.239-.533.533-.533zM20.8 10.667h2.133v-2.133h-2.133v2.133zM20.267 2.133h3.2c.295 0 .533.239.533.533v3.2c0 .295-.239.533-.533.533h-3.2c-.294 0-.533-.239-.533-.533v-3.2c0-.295.239-.533.533-.533zM20.8 5.333h2.133v-2.133h-2.133v2.133zM20.267 12.8h3.2c.295 0 .533.239.533.533v3.2c0 .295-.239.533-.533.533h-3.2c-.294 0-.533-.239-.533-.533v-3.2c0-.295.239-.533.533-.533zM20.8 16h2.133v-2.133h-2.133v2.133zM20.267 18.133h3.2c.295 0 .533.239.533.533v3.2c0 .295-.239.533-.533.533h-3.2c-.294 0-.533-.239-.533-.533v-3.2c0-.295.239-.533.533-.533zM20.8 21.333h2.133v-2.133h-2.133v2.133zM10.133 24.533h-3.2c-.295 0-.533-.239-.533-.533v-3.2c0-.295.239-.533.533-.533h3.2c.295 0 .533.239.533.533v3.2c0 .294-.239.533-.533.533zM9.6 21.333h-2.133v2.133h2.133v-2.133zM10.133 19.2h-3.2c-.295 0-.533-.239-.533-.533v-3.2c0-.295.239-.533.533-.533h3.2c.295 0 .533.239.533.533v3.2c0 .295-.239.533-.533.533zM9.6 16h-2.133v2.133h2.133v-2.133zM10.133 29.867h-3.2c-.295 0-.533-.239-.533-.533v-3.2c0-.295.239-.533.533-.533h3.2c.295 0 .533.239.533.533v3.2c0 .295-.239.533-.533.533zM9.6 26.667h-2.133v2.133h2.133v-2.133zM15.467 24.533h-3.2c-.295 0-.533-.239-.533-.533v-3.2c0-.295.239-.533.533-.533h3.2c.295 0 .533.239.533.533v3.2c0 .294-.239.533-.533.533zM14.933 21.333h-2.133v2.133h2.133v-2.133zM15.467 19.2h-3.2c-.295 0-.533-.239-.533-.533v-3.2c0-.295.239-.533.533-.533h3.2c.295 0 .533.239.533.533v3.2c0 .295-.239.533-.533.533zM14.933 16h-2.133v2.133h2.133v-2.133zM15.467 29.867h-3.2c-.295 0-.533-.239-.533-.533v-3.2c0-.295.239-.533.533-.533h3.2c.295 0 .533.239.533.533v3.2c0 .295-.239.533-.533.533zM14.933 26.667h-2.133v2.133h2.133v-2.133z"/></symbol><symbol viewBox="0 0 32 32" id="svg-book-heart"><path d="M29.383 3.927c-1.655-1.779-3.974-2.791-6.404-2.795-2.432 0.003-4.754 1.015-6.411 2.794l-0.565 0.597-0.565-0.597c-3.289-3.54-8.826-3.744-12.366-0.454-0.157 0.146-0.308 0.297-0.454 0.454-3.489 3.764-3.489 9.58 0 13.344l12.555 13.24c0.434 0.459 1.158 0.478 1.617 0.044 0.015-0.014 0.030-0.029 0.044-0.044l12.551-13.24c3.489-3.763 3.489-9.58-0-13.343zM27.728 15.695h-0.001l-11.725 12.366-11.726-12.366c-2.666-2.876-2.666-7.32 0-10.196 2.421-2.624 6.51-2.788 9.134-0.367 0.127 0.118 0.25 0.24 0.367 0.367l1.394 1.471c0.459 0.456 1.201 0.456 1.661 0l1.394-1.47c2.421-2.624 6.51-2.788 9.134-0.367 0.127 0.118 0.25 0.24 0.368 0.367 2.689 2.88 2.708 7.332 0 10.194z"/></symbol><symbol viewBox="0 0 32 32" id="svg-book-leaf"><path d="M31.21 0.345c-0.843-0.247-21.467-2.3-28.71 7.485-3.208 4.335-3.256 10.278-0.161 17.661-0.785 1.63-1.473 3.346-2.033 5.158-0.17 0.55 0.138 1.134 0.688 1.304 0.102 0.032 0.206 0.047 0.309 0.047 0.445 0 0.857-0.287 0.995-0.734 5.521-17.848 23.461-26.482 28.962-28.664 0.536-0.212 1.251-1.876-0.050-2.257z"/><path d="M5.65 27.725c2.986 1.253 5.972 1.895 8.748 1.895 2.496 0 4.823-0.513 6.828-1.554 4.036-2.094 6.503-6.099 7.133-11.583 0.642-5.59 1.44-9.091 2.107-11.232-5.932 2.736-18.652 9.829-24.816 22.475z"/></symbol><symbol viewBox="0 0 32 32" id="svg-book-map"><path d="M30.859 0c-0.178-0-0.353 0.041-0.512 0.121l-8.66 4.331-9.793-4.353c-0.016-0.007-0.034-0.008-0.051-0.015-0.044-0.016-0.089-0.030-0.135-0.041-0.045-0.012-0.092-0.022-0.138-0.029-0.093-0.008-0.186-0.008-0.279 0-0.047 0.007-0.093 0.016-0.138 0.029-0.046 0.011-0.091 0.025-0.135 0.041-0.017 0.007-0.035 0.008-0.051 0.015l-10.286 4.571c-0.413 0.183-0.679 0.593-0.679 1.045v25.142c0 0.387 0.196 0.747 0.52 0.958s0.733 0.244 1.087 0.087l9.822-4.366 9.822 4.366c0.017 0.007 0.035 0 0.053 0.010 0.277 0.124 0.594 0.117 0.865-0.019 0.018-0.008 0.039 0 0.057-0.013l9.143-4.571c0.387-0.194 0.632-0.59 0.632-1.023v-25.142c0-0.631-0.511-1.143-1.142-1.143zM10.288 25.543l-8 3.555v-22.641l8-3.555v22.641zM20.573 29.098l-8-3.555v-22.641l8 3.555v22.641zM29.716 25.58l-6.857 3.428v-22.587l6.857-3.429v22.587z"/></symbol><symbol viewBox="0 0 32 32" id="svg-book-send"><path d="M28.213 2.84l-14.44 14.493c-.166-.096-.34-.176-.52-.24l-9.533-3.227c-.288-.072-.544-.239-.727-.473s-.282-.523-.282-.82c0-.297.099-.586.282-.82s.439-.401.727-.473l23.653-8.413c.154-.053.317-.08.48-.08.122-.002.244.016.36.053zM29.134 4.627l-8.413 23.68c-.093.276-.273.514-.514.678s-.529.244-.819.229c-.294.014-.584-.071-.826-.24s-.42-.413-.508-.694l-3.173-9.533c-.064-.18-.144-.354-.24-.52l14.52-14.44c.082.276.073.57-.026.84z"/></symbol><symbol viewBox="0 0 32 32" id="svg-book1"><path d="M0.792 6.51c-0.431 0-0.784-0.353-0.792-0.784v-4.933c0-0.439 0.353-0.792 0.792-0.792h4.933c0.431 0 0.784 0.353 0.784 0.792v1.718h18.98v-1.718c0-0.431 0.353-0.784 0.784-0.792h4.933c0.431 0 0.784 0.353 0.792 0.792v4.933c0 0.431-0.353 0.784-0.792 0.784h-1.718v18.98h1.718c0.431 0 0.784 0.353 0.792 0.784v4.933c0 0.431-0.353 0.784-0.792 0.792h-4.933c-0.431 0-0.784-0.353-0.784-0.792v-1.718h-18.98v1.718c0 0.431-0.353 0.784-0.784 0.792h-4.933c-0.431 0-0.784-0.353-0.792-0.792v-4.933c0-0.431 0.353-0.784 0.792-0.784h1.718v-18.98h-1.718zM30.431 4.941v-3.373h-3.373v3.373h3.373zM27.059 30.431h3.373v-3.373h-3.373v3.373zM6.51 26.274v1.647h18.98v-1.647c0-0.431 0.353-0.784 0.784-0.784h1.647v-18.98h-1.647c-0.431 0-0.784-0.353-0.784-0.784v-1.647h-18.98v1.647c0 0.431-0.353 0.784-0.784 0.784h-1.647v18.98h1.647c0.431 0 0.784 0.353 0.784 0.784zM1.569 27.059v3.373h3.373v-3.373h-3.373zM4.941 4.941v-3.373h-3.373v3.373h3.373z"/></symbol><symbol viewBox="0 0 43 32" id="svg-book2"><path d="M37.011 31.873c-.8.016-1.587-.213-2.253-.656-.496-.324-1.076-.497-1.668-.497s-1.172.172-1.668.497c-.673.429-1.454.656-2.252.656s-1.579-.228-2.252-.656c-.496-.324-1.076-.497-1.668-.497s-1.172.173-1.668.497c-.673.429-1.454.656-2.252.656s-1.579-.228-2.252-.656c-.495-.324-1.075-.497-1.667-.497s-1.172.173-1.667.497c-.61.405-1.322.631-2.055.65l-.04-1.153c.541-.013 1.066-.184 1.511-.492.673-.428 1.454-.656 2.252-.656s1.579.228 2.252.656c.496.324 1.076.497 1.668.497s1.172-.173 1.668-.497c.673-.429 1.455-.657 2.253-.657s1.58.228 2.253.657c.496.324 1.076.497 1.668.497s1.172-.173 1.668-.497c.673-.428 1.455-.656 2.252-.656s1.579.228 2.252.656c.497.325 1.078.498 1.672.498s1.175-.173 1.672-.498c.666-.442 1.45-.671 2.249-.655v1.153c-.595-.016-1.179.158-1.669.497-.668.444-1.456.673-2.258.657zM5.651 31.873c-.8.017-1.586-.212-2.252-.656-.489-.339-1.074-.513-1.669-.497v-1.153c.8-.017 1.587.212 2.253.656.489.339 1.073.513 1.668.497.595.016 1.18-.158 1.669-.498.665-.444 1.45-.672 2.249-.655.78-.018 1.546.201 2.2.627l-.582.995c-.477-.321-1.043-.485-1.618-.469-.593-.016-1.175.158-1.662.496-.667.445-1.454.674-2.256.657zM37.012 27.836c-.801.016-1.587-.213-2.254-.656-.496-.324-1.076-.497-1.669-.497s-1.173.173-1.669.497c-.673.428-1.454.656-2.252.656s-1.579-.228-2.252-.656c-.496-.324-1.075-.497-1.667-.497s-1.172.173-1.668.497c-.673.429-1.454.656-2.252.656s-1.579-.228-2.252-.656c-.496-.324-1.075-.497-1.667-.497s-1.172.173-1.667.497c-.666.444-1.452.673-2.252.656-.8.017-1.586-.212-2.252-.656-.489-.339-1.073-.513-1.667-.497-.594-.016-1.178.158-1.667.497-.665.443-1.45.672-2.249.656-.8.017-1.587-.212-2.253-.656-.49-.34-1.075-.514-1.671-.497v-1.153c.8-.017 1.586.212 2.252.656.489.339 1.074.513 1.669.497.594.016 1.178-.158 1.667-.497.665-.443 1.45-.672 2.249-.656.801-.017 1.587.212 2.254.656.489.339 1.073.513 1.668.497.595.016 1.179-.158 1.668-.497.673-.429 1.454-.656 2.252-.656s1.579.228 2.252.656c.496.324 1.075.497 1.668.497s1.172-.173 1.668-.497c.673-.429 1.454-.656 2.252-.656s1.579.228 2.252.656c.496.324 1.075.497 1.668.497s1.172-.173 1.668-.497c.674-.428 1.455-.656 2.254-.656s1.58.228 2.254.656c.497.324 1.077.497 1.67.497s1.173-.173 1.67-.497c.667-.443 1.453-.672 2.254-.656v1.153c-.596-.017-1.182.157-1.672.497-.666.443-1.452.672-2.253.656zM37.011 23.801c-.8.016-1.586-.213-2.253-.656-.489-.339-1.074-.513-1.669-.497-.437-.015-.87.078-1.262.271l-.509-1.038c.55-.27 1.158-.403 1.771-.388.801-.016 1.588.213 2.255.658.497.325 1.078.498 1.672.498s1.175-.173 1.672-.498c.665-.442 1.45-.671 2.249-.656v1.153c-.595-.016-1.179.157-1.669.496-.668.444-1.456.673-2.258.657zM29.163 23.801c-.799.017-1.584-.212-2.249-.656-.496-.324-1.076-.497-1.668-.497s-1.172.173-1.668.497c-.673.429-1.454.656-2.252.656s-1.579-.228-2.252-.656c-.496-.324-1.076-.497-1.668-.497s-1.172.173-1.668.497c-.666.443-1.451.672-2.251.656-.8.017-1.586-.212-2.252-.656-.489-.339-1.074-.513-1.669-.497-.593-.016-1.175.158-1.662.496-.666.445-1.453.674-2.253.657-.8.017-1.586-.212-2.252-.656-.489-.339-1.074-.513-1.669-.497v-1.153c.8-.017 1.587.212 2.253.656.489.339 1.073.513 1.668.497.595.016 1.18-.158 1.669-.498.665-.444 1.45-.672 2.249-.655.8-.017 1.586.212 2.252.656.489.339 1.073.513 1.668.497.595.016 1.179-.158 1.669-.497.673-.429 1.454-.656 2.252-.656s1.579.228 2.252.656c.496.324 1.076.497 1.668.497s1.172-.173 1.668-.497c.673-.429 1.455-.657 2.253-.657s1.58.228 2.253.657c.508.341 1.11.515 1.722.496.044.001.089-.002.133-.007l.153 1.143c-.116.014-.232.02-.349.018zM37.012 19.764c-.801.016-1.587-.213-2.254-.656-.496-.324-1.076-.497-1.669-.497s-1.173.173-1.669.497c-.673.428-1.454.656-2.252.656s-1.579-.228-2.252-.656c-.496-.324-1.075-.497-1.667-.497s-1.172.173-1.668.497c-.673.428-1.454.656-2.252.656s-1.579-.228-2.252-.656c-.496-.324-1.075-.497-1.667-.497s-1.172.173-1.667.497c-.666.444-1.452.673-2.252.656-.8.017-1.586-.212-2.252-.656-.489-.339-1.073-.513-1.667-.497-.594-.016-1.178.158-1.667.497-.665.443-1.45.672-2.249.656-.8.017-1.587-.212-2.253-.656-.49-.34-1.075-.514-1.671-.497v-1.153c.8-.017 1.586.212 2.252.656.489.339 1.074.513 1.669.497.594.016 1.178-.158 1.667-.497.665-.443 1.45-.672 2.249-.656.801-.017 1.587.212 2.254.656.489.339 1.073.513 1.668.497.595.016 1.179-.158 1.668-.497.673-.429 1.454-.656 2.252-.656s1.579.228 2.252.656c.496.324 1.075.497 1.668.497s1.172-.173 1.668-.497c.673-.429 1.454-.656 2.252-.656s1.579.228 2.252.656c.496.324 1.075.497 1.668.497s1.172-.173 1.668-.497c.674-.428 1.455-.656 2.254-.656s1.58.228 2.254.656c.497.324 1.077.497 1.67.497s1.173-.173 1.67-.497c.667-.444 1.453-.672 2.254-.656v1.153c-.596-.017-1.182.157-1.672.497-.666.443-1.452.672-2.253.656z"/><path d="M28.796 19.275l-1.088-.382c.28-.805.395-1.658.337-2.509s-.288-1.68-.675-2.44l-3.96-7.756c-.039-.077-.061-.161-.063-.247s.015-.171.05-.25c.035-.079.087-.148.153-.204s.142-.096.226-.118l7.893-2.104c.257-.067.477-.233.613-.462s.175-.502.11-.76-.229-.48-.457-.617c-.228-.137-.5-.179-.759-.117l-9.553 2.283c-.204.048-.395.143-.556.277s-.291.303-.377.494c-.086.191-.127.4-.119.61s.064.415.163.599l2.837 5.27c.072.134.088.291.045.437s-.142.269-.276.342l-3.661 2.018-.556-1.01 3.161-1.742-2.563-4.767c-.183-.34-.286-.718-.3-1.105s.061-.771.219-1.123c.158-.353.396-.664.694-.911s.649-.421 1.025-.51l9.548-2.283c.556-.14 1.145-.054 1.637.239s.848.771.988 1.327.054 1.145-.239 1.637c-.294.492-.771.848-1.327.988l-7.204 1.92 3.637 7.12c.458.899.729 1.881.798 2.887s-.067 2.016-.399 2.969zM17.106 13.749l-7.007 3.861.556 1.009 7.007-3.861-.556-1.009z"/><path d="M34.018 15.44c-0.855 0-1.691-0.254-2.402-0.729s-1.265-1.151-1.593-1.941c-0.327-0.79-0.413-1.66-0.246-2.498s0.579-1.609 1.183-2.214c0.605-0.605 1.375-1.017 2.214-1.183s1.708-0.081 2.498 0.246c0.79 0.327 1.466 0.882 1.941 1.593s0.729 1.547 0.729 2.402c-0.001 1.146-0.457 2.246-1.268 3.056s-1.91 1.267-3.056 1.268zM34.018 7.944c-0.627 0-1.24 0.186-1.762 0.534s-0.928 0.844-1.168 1.423-0.303 1.217-0.18 1.832c0.122 0.615 0.424 1.18 0.868 1.624s1.009 0.746 1.624 0.868 1.253 0.060 1.832-0.18c0.58-0.24 1.075-0.646 1.423-1.168s0.535-1.135 0.535-1.762c-0.001-0.841-0.336-1.647-0.93-2.241s-1.401-0.929-2.241-0.93z"/></symbol><symbol viewBox="0 0 38 32" id="svg-book3"><path d="M7.2 17.8c-.475 0-.939.141-1.333.404s-.702.639-.884 1.077c-.182.439-.229.921-.137 1.387s.321.893.657 1.229c.336.336.763.564 1.229.657s.948.045 1.387-.137c.439-.182.813-.489 1.077-.884s.404-.859.404-1.333c0-.636-.253-1.247-.703-1.697s-1.061-.703-1.697-.703zM7.2 21.4c-.237 0-.469-.07-.667-.202s-.351-.319-.442-.539c-.091-.219-.115-.46-.068-.693s.161-.447.328-.614c.168-.168.382-.282.614-.328s.474-.023.693.068.407.245.539.442c.132.197.202.429.202.667 0 .318-.126.624-.351.848s-.53.352-.849.352zM31.2 17.8c-.475 0-.939.141-1.333.404s-.702.639-.884 1.077c-.182.439-.229.921-.137 1.387s.321.893.657 1.229c.336.336.763.564 1.229.657s.948.045 1.387-.137c.439-.182.813-.489 1.077-.884s.404-.859.404-1.333c0-.636-.253-1.247-.703-1.697s-1.061-.703-1.697-.703zM31.2 21.4c-.237 0-.469-.07-.667-.202s-.351-.319-.442-.539c-.091-.219-.115-.46-.068-.693s.161-.447.328-.614c.168-.168.382-.282.614-.328s.474-.023.693.068c.219.091.407.245.539.442s.202.429.202.667c0 .318-.126.624-.352.848s-.53.352-.848.352zM13.8 20.8h10.8v1.2h-10.8v-1.2zM13.8 18.4h10.8v1.2h-10.8v-1.2zM17.4 9.4h3.6v1.2h-3.6v-1.2z"/><path d="M37.2 14.8v-1.2c-0.001-0.477-0.192-0.934-0.529-1.271s-0.794-0.527-1.271-0.529h-2.376l-1.242-4.356-0.372-1.482c-0.098-0.389-0.322-0.734-0.639-0.981s-0.706-0.381-1.107-0.381h-5.064v-2.4c-0.001-0.318-0.128-0.623-0.352-0.847s-0.53-0.352-0.848-0.353h-8.4c-0.318 0.001-0.623 0.128-0.847 0.353s-0.352 0.53-0.353 0.847v2.4h-5.064c-0.401-0-0.791 0.134-1.107 0.381s-0.541 0.592-0.639 0.981l-0.366 1.476-1.248 4.362h-2.376c-0.477 0.001-0.934 0.192-1.271 0.529s-0.527 0.794-0.529 1.271v1.2c0.001 0.304 0.079 0.603 0.227 0.868s0.361 0.489 0.619 0.65c-0.542 0.557-0.846 1.304-0.846 2.082v7.2c0.001 0.252 0.055 0.5 0.158 0.73s0.254 0.435 0.442 0.602v2.268c0.001 0.477 0.192 0.934 0.529 1.271s0.794 0.527 1.271 0.529h4.8c0.477-0.001 0.934-0.192 1.271-0.529s0.527-0.794 0.529-1.271v-1.8h18v1.8c0.001 0.477 0.192 0.934 0.529 1.271s0.794 0.527 1.271 0.529h4.8c0.477-0.001 0.934-0.192 1.271-0.529s0.527-0.794 0.529-1.271v-2.268c0.188-0.167 0.339-0.373 0.442-0.602s0.157-0.478 0.158-0.73v-7.2c0-0.778-0.304-1.525-0.846-2.082 0.258-0.161 0.471-0.384 0.619-0.65s0.226-0.564 0.227-0.868zM15 2.2h8.4v2.4h-8.4v-2.4zM8.154 6.256c0.032-0.13 0.107-0.246 0.212-0.328s0.236-0.128 0.37-0.128h20.928c0.134 0 0.264 0.045 0.37 0.128s0.18 0.198 0.212 0.328l0.186 0.744h-22.464l0.186-0.744zM7.65 8.2h23.1l2.052 7.2h-17.256c-0.141-0.838-0.575-1.6-1.224-2.149s-1.472-0.85-2.322-0.85c-0.85 0-1.673 0.301-2.322 0.85s-1.083 1.31-1.224 2.149h-2.856l2.052-7.2zM14.316 15.4h-4.632c0.131-0.515 0.43-0.971 0.849-1.297s0.936-0.503 1.467-0.503c0.531 0 1.047 0.177 1.467 0.503s0.718 0.783 0.849 1.297zM2.4 13.6c0-0.159 0.063-0.312 0.176-0.424s0.265-0.176 0.424-0.176h2.034l-0.684 2.4h-1.35c-0.159 0-0.312-0.063-0.424-0.176s-0.176-0.265-0.176-0.424v-1.2zM9 29.2c0 0.159-0.063 0.312-0.176 0.424s-0.265 0.176-0.424 0.176h-4.8c-0.159 0-0.312-0.063-0.424-0.176s-0.176-0.265-0.176-0.424v-1.8h6v1.8zM35.4 29.2c0 0.159-0.063 0.312-0.176 0.424s-0.265 0.176-0.424 0.176h-4.8c-0.159 0-0.312-0.063-0.424-0.176s-0.176-0.265-0.176-0.424v-1.8h6v1.8zM36 25.6c0 0.159-0.063 0.312-0.176 0.424s-0.265 0.176-0.424 0.176h-32.4c-0.159 0-0.312-0.063-0.424-0.176s-0.176-0.265-0.176-0.424v-0.6h33.6v0.6zM36 23.8h-33.6v-5.4c0.001-0.477 0.192-0.934 0.529-1.271s0.794-0.527 1.271-0.529h30c0.477 0.001 0.934 0.192 1.271 0.529s0.527 0.794 0.529 1.271v5.4zM36 14.8c0 0.159-0.063 0.312-0.176 0.424s-0.265 0.176-0.424 0.176h-1.35l-0.684-2.4h2.034c0.159 0 0.312 0.063 0.424 0.176s0.176 0.265 0.176 0.424v1.2z"/></symbol><symbol viewBox="0 0 512 512" id="svg-facebook"><path d="M304 96h80v-96h-80c-61.757 0-112 50.243-112 112v48h-64v96h64v256h96v-256h80l16-96h-96v-48c0-8.673 7.327-16 16-16z"/></symbol><symbol viewBox="0 0 1024 1024" id="svg-instagram"><path d="M512.077 249.491c-145.281 0-262.529 117.248-262.529 262.526 0 145.28 117.248 262.528 262.529 262.528s262.528-117.248 262.528-262.528c0-145.278-117.248-262.526-262.528-262.526zM512.077 682.641c-93.953 0-170.625-76.672-170.625-170.624 0-93.95 76.672-170.622 170.625-170.622s170.624 76.672 170.624 170.622c0 93.952-76.672 170.624-170.624 170.624zM785.357 177.555c-33.92 0-61.312 27.392-61.312 61.312s27.392 61.312 61.312 61.312c33.92 0 61.312-27.264 61.312-61.312 0.009-8.055-1.57-16.032-4.646-23.475-3.081-7.443-7.595-14.206-13.291-19.901s-12.459-10.211-19.9-13.289c-7.445-3.078-15.424-4.657-23.475-4.646zM1023.821 512.017c0-70.656 0.64-140.67-3.328-211.198-3.968-81.92-22.656-154.624-82.56-214.528-60.032-60.032-132.608-78.592-214.528-82.56-70.656-3.968-140.672-3.328-211.2-3.328-70.656 0-140.673-0.64-211.201 3.328-81.92 3.968-154.624 22.656-214.528 82.56-60.032 60.032-78.592 132.608-82.56 214.528-3.968 70.656-3.328 140.67-3.328 211.198s-0.64 140.672 3.328 211.2c3.968 81.92 22.656 154.624 82.56 214.528 60.032 60.032 132.608 78.592 214.528 82.56 70.656 3.968 140.673 3.328 211.201 3.328 70.656 0 140.672 0.64 211.2-3.328 81.92-3.968 154.624-22.656 214.528-82.56 60.032-60.032 78.592-132.608 82.56-214.528 4.096-70.528 3.328-140.544 3.328-211.2zM911.181 813.841c-9.344 23.296-20.608 40.704-38.656 58.624-18.048 18.048-35.328 29.312-58.624 38.656-67.328 26.752-227.2 20.736-301.824 20.736s-234.625 6.016-301.953-20.608c-23.296-9.344-40.704-20.608-58.624-38.656-18.048-18.048-29.312-35.328-38.656-58.624-26.624-67.456-20.608-227.328-20.608-301.952s-6.016-234.622 20.608-301.95c9.344-23.296 20.608-40.704 38.656-58.624s35.328-29.312 58.624-38.656c67.328-26.624 227.329-20.608 301.953-20.608s234.624-6.016 301.952 20.608c23.296 9.344 40.704 20.608 58.624 38.656 18.048 18.048 29.312 35.328 38.656 58.624 26.624 67.328 20.608 227.326 20.608 301.95s6.016 234.496-20.736 301.824z"/></symbol><symbol viewBox="0 0 32 32" id="svg-navigation"><path d="M28.909 4.417l-11 24c-0.092 0.201-0.248 0.366-0.444 0.469s-0.42 0.138-0.638 0.1-0.417-0.147-0.566-0.311c-0.149-0.163-0.24-0.371-0.258-0.592l-0.93-11.157-11.157-0.93c-0.22-0.018-0.428-0.109-0.592-0.258s-0.272-0.348-0.311-0.566c-0.038-0.218-0.003-0.442 0.1-0.638s0.268-0.352 0.469-0.444l24-11c0.185-0.085 0.393-0.111 0.593-0.075s0.386 0.133 0.53 0.277 0.241 0.329 0.277 0.53c0.036 0.201 0.010 0.408-0.075 0.594l0 0z"/></symbol><symbol viewBox="0 0 30 32" id="svg-play"><path d="M29.538 16l-27.692 15.988v-31.976l27.692 15.988z"/></symbol><symbol viewBox="0 0 41 32" id="svg-telegram"><path d="M15.976 21.098l-0.679 8.94c0.955 0 1.379-0.4 1.888-0.86l4.518-4.080 9.355 6.46c1.718 0.9 2.927 0.42 3.394-1.48l6.151-27.16c0.552-2.4-0.912-3.32-2.588-2.74l-36.124 13.040c-2.461 0.9-2.418 2.2-0.424 2.78l9.227 2.7 21.446-12.66c1.018-0.64 1.93-0.28 1.167 0.34l-17.33 14.72z"/></symbol><symbol viewBox="0 0 1229 1024" id="svg-twitter"><path d="M1228.82 126.233c-45.138 19.76-94.259 33.981-144.86 39.52 52.531-31.67 91.873-81.704 110.638-140.715-49.295 29.758-103.296 50.625-159.611 61.675-23.537-25.534-52.004-45.876-83.625-59.758-31.626-13.882-65.725-21.006-100.178-20.929-139.402 0-251.515 114.668-251.515 255.383 0 19.76 2.36 39.52 6.195 58.532-208.732-11.078-394.896-112.273-518.661-267.21-22.552 39.089-34.369 83.595-34.224 128.889 0 88.621 44.402 166.762 112.111 212.72-39.902-1.595-78.87-12.725-113.734-32.484v3.144c0 124.099 86.444 226.939 201.653 250.594-21.631 5.704-43.885 8.617-66.234 8.684-16.374 0-31.863-1.649-47.5-3.896 31.863 101.197 124.65 174.7 235.139 177.096-86.444 68.71-194.72 109.128-312.289 109.128-21.095 0-40.567-0.748-60.776-3.144 111.521 72.602 243.842 114.519 386.342 114.519 462.607 0 715.74-388.915 715.74-726.481 0-11.078 0-22.155-0.737-33.233 48.978-36.376 91.904-81.435 126.126-132.033z"/></symbol></svg>